<svg width="59" height="59" viewBox="0 0 59 59" fill="none" xmlns="http://www.w3.org/2000/svg">
<g clip-path="url(#clip0_22104_8736)">
<circle cx="29.5" cy="29.5" r="8.5" fill="#38BFF2"/>
<circle cx="41.5" cy="5.5" r="4.5" fill="#38BFF2"/>
<circle cx="5.5" cy="17.5" r="4.5" fill="#38BFF2"/>
<circle cx="17.5" cy="53.5" r="4.5" fill="#38BFF2"/>
<circle cx="53.5" cy="41.5" r="4.5" fill="#38BFF2"/>
<path d="M20.7301 27.1506C19.435 31.9858 22.3148 36.9738 27.1506 38.2699C27.9344 38.4796 28.7218 38.5798 29.4973 38.5798C33.5057 38.5798 37.1839 35.9013 38.2698 31.8494C38.8974 29.5073 38.575 27.0608 37.3624 24.9607C36.1498 22.8605 34.1919 21.3582 31.8498 20.7307C29.5062 20.1025 27.0602 20.4254 24.9606 21.6376C22.8604 22.8501 21.3582 24.808 20.7301 27.1506ZM29.5016 22.0153C30.1406 22.0153 30.791 22.0978 31.4367 22.2712H31.4373C33.3683 22.7883 34.9821 24.0268 35.9813 25.7579C36.9811 27.489 37.2468 29.5062 36.7293 31.4366C35.6611 35.4227 31.5489 37.7995 27.5634 36.7292C23.5768 35.661 21.2025 31.5493 22.2708 27.5633C23.1657 24.223 26.197 22.0153 29.5016 22.0153ZM13.7277 25.9516C13.7474 25.9532 13.7667 25.9537 13.7859 25.9537C14.2002 25.9537 14.5501 25.6329 14.5801 25.2134C15.5815 11.2302 26.0635 5.25111 36.2752 5.40438C36.3114 6.22266 36.5414 7.02642 36.9628 7.75608C37.6532 8.9521 38.7682 9.80748 40.1022 10.1652C40.5476 10.2846 40.9992 10.3432 41.4482 10.3432C42.3441 10.3432 43.2287 10.108 44.0254 9.64811C44.948 9.1155 45.665 8.32856 46.11 7.38503C49.8337 8.82361 53.3097 10.9688 56.4464 13.7883C56.599 13.9253 56.7896 13.9928 56.979 13.9928C57.1975 13.9928 57.4151 13.9035 57.5724 13.7286C57.8667 13.4011 57.8402 12.897 57.5127 12.6027C54.1966 9.62184 50.5126 7.35864 46.5608 5.8501C46.8982 3.31587 45.3122 0.855729 42.778 0.176422C40.0295 -0.559119 37.196 1.07214 36.4512 3.81587C23.5191 3.5279 13.9142 12.1897 12.9894 25.0992C12.958 25.5384 13.2886 25.9199 13.7277 25.9516ZM37.9864 4.245C38.4136 2.64935 39.8623 1.59461 41.4409 1.59461C41.7466 1.59461 42.0571 1.63402 42.3659 1.71711C44.2699 2.22736 45.4041 4.19153 44.8938 6.09659C44.3835 8.00107 42.4173 9.13578 40.5143 8.62449C38.6104 8.11423 37.4762 6.15006 37.9864 4.245ZM3.81596 22.5487C3.52753 35.4789 12.1895 45.0852 25.0992 46.0104C25.1189 46.0119 25.1381 46.0125 25.1574 46.0125C25.5716 46.0125 25.9215 45.6917 25.9516 45.2723C25.9833 44.8331 25.6525 44.4516 25.2135 44.4199C11.227 43.4178 5.24349 32.9287 5.40424 22.7174C6.2224 22.6812 7.02663 22.4583 7.75617 22.0372C8.95219 21.3468 9.80758 20.2318 10.1653 18.8977C10.5224 17.5643 10.3392 16.1705 9.64821 14.9745C9.11559 14.0519 8.32866 13.335 7.38512 12.8899C8.82359 9.1662 10.969 5.69004 13.7884 2.55336C14.0827 2.22587 14.0562 1.72183 13.7287 1.42752C13.4001 1.13218 12.8961 1.16018 12.6028 1.48721C9.62205 4.80343 7.35873 8.48736 5.85031 12.4392C3.31608 12.102 0.855477 13.6877 0.176631 16.2219C-0.559487 18.9698 1.07281 21.8033 3.81596 22.5487ZM1.7172 16.634C2.14437 15.0383 3.5931 13.9836 5.1717 13.9836C5.47741 13.9836 5.78786 14.023 6.09668 14.1061C8.0007 14.6163 9.13484 16.5805 8.62458 18.4856C8.11432 20.39 6.1475 21.5243 4.2451 21.0135C2.34119 20.5032 1.20694 18.539 1.7172 16.634ZM45.2722 33.0484C44.8258 33.0111 44.4515 33.3479 44.42 33.7866C43.4186 47.77 32.9398 53.756 22.7249 53.5961C22.6889 52.7775 22.4588 51.9737 22.0373 51.2438C21.3469 50.0478 20.2319 49.1924 18.8978 48.8347C17.5638 48.4776 16.1712 48.6613 14.9746 49.3518C14.052 49.8844 13.335 50.6713 12.89 51.6149C9.16641 50.1763 5.69025 48.0311 2.55357 45.2116C2.22504 44.9163 1.721 44.9443 1.42773 45.2713C1.13342 45.5988 1.15993 46.1029 1.48742 46.3972C4.80352 49.3781 8.48745 51.6413 12.4393 53.1498C12.1019 55.684 13.6879 58.1442 16.2221 58.8235C16.6685 58.9429 17.117 59 17.5587 59C19.8362 59 21.9256 57.4813 22.5493 55.1831C22.7579 55.1877 22.9682 55.1977 23.1751 55.1977C35.7888 55.1977 45.1005 46.6017 46.0105 33.9008C46.042 33.4616 45.7114 33.0801 45.2722 33.0484ZM21.0135 54.755C20.5033 56.6595 18.536 57.7942 16.6341 57.2829C14.73 56.7726 13.5959 54.8085 14.1062 52.9034C14.5333 51.3078 15.9821 50.253 17.5607 50.253C17.8664 50.253 18.1768 50.2924 18.4857 50.3755C20.3896 50.8857 21.5238 52.8499 21.0135 54.755ZM55.184 36.4513C55.4724 23.5211 46.8106 13.9148 33.9008 12.9895C33.4627 12.9563 33.0801 13.2889 33.0485 13.7276C33.0168 14.1668 33.3475 14.5483 33.7866 14.58C47.7696 15.582 53.7537 26.0661 53.5958 36.2751C52.7772 36.3112 51.9737 36.5415 51.2438 36.9629C50.0478 37.6533 49.1924 38.7683 48.8347 40.1024C48.4776 41.4359 48.6608 42.8296 49.3518 44.0256C49.8844 44.9482 50.6713 45.6651 51.6149 46.1102C50.1764 49.8339 48.0309 53.3101 45.2116 56.4468C44.9173 56.7743 44.9438 57.2783 45.2713 57.5726C45.4239 57.7096 45.6145 57.7771 45.8039 57.7771C46.0224 57.7771 46.24 57.6878 46.3973 57.5129C49.377 54.1978 51.6397 50.5153 53.1483 46.5651C53.3758 46.5955 53.6028 46.6112 53.8279 46.6112C56.1108 46.6112 58.2053 45.0856 58.8236 42.7782C59.5595 40.0302 57.9272 37.1967 55.184 36.4513ZM57.2828 42.366C56.7725 44.2705 54.8057 45.4052 52.9033 44.8939C50.9993 44.3837 49.8651 42.4195 50.3754 40.5145C50.8026 38.9188 52.2513 37.8641 53.8299 37.8641C54.1356 37.8641 54.446 37.9035 54.7549 37.9866C56.6588 38.4967 57.793 40.461 57.2828 42.366Z" fill="#1A2E35"/>
</g>
<defs>
<clipPath id="clip0_22104_8736">
<rect width="59" height="59" fill="white"/>
</clipPath>
</defs>
</svg>
