<svg width="60" height="60" viewBox="0 0 60 60" fill="none" xmlns="http://www.w3.org/2000/svg">
<path d="M39.2676 4.02061V55.9793C39.2676 57.6875 37.883 59.0721 36.1748 59.0721H8.24906C6.54094 59.0721 5.15625 57.6875 5.15625 55.9793V4.02061C5.15625 2.31248 6.54094 0.927795 8.24906 0.927795H36.1748C37.883 0.927913 39.2676 2.3126 39.2676 4.02061Z" fill="white"/>
<path d="M30.8156 0.927887V3.39715C30.8156 4.76367 29.7078 5.87133 28.3414 5.87133H16.0816C14.7151 5.87133 13.6074 4.76355 13.6074 3.39715V0.927887H30.8156Z" fill="#38BFF2"/>
<path d="M54.846 20.765V40.4722C54.846 41.8387 53.7382 42.9464 52.3718 42.9464H22.2109V18.2907H52.3717C53.7382 18.2907 54.846 19.3985 54.846 20.765Z" fill="#38BFF2"/>
<path d="M22.2109 23.3475H54.846V29.4782H22.2109V23.3475Z" fill="#D7E9FF"/>
<path d="M14.056 54.7423C13.7144 54.7423 13.4375 55.019 13.4375 55.3608C13.4375 55.7027 13.7144 55.9793 14.056 55.9793H30.3654C30.707 55.9793 30.9839 55.7026 30.9839 55.3608C30.9839 55.0188 30.707 54.7423 30.3654 54.7423H14.056Z" fill="#1A2E35"/>
<path d="M26.6966 4.01825H27.8011C28.1427 4.01825 28.4196 3.74157 28.4196 3.39974C28.4196 3.0579 28.1427 2.78122 27.8011 2.78122H26.6966C26.355 2.78122 26.0781 3.0579 26.0781 3.39974C26.0781 3.74157 26.355 4.01825 26.6966 4.01825Z" fill="#1A2E35"/>
<path d="M16.6205 4.01825H23.7991C24.1407 4.01825 24.4177 3.74157 24.4177 3.39974C24.4177 3.0579 24.1407 2.78122 23.7991 2.78122H16.6205C16.2789 2.78122 16.002 3.0579 16.002 3.39974C16.002 3.74157 16.2789 4.01825 16.6205 4.01825Z" fill="#1A2E35"/>
<path d="M52.3713 17.6724H39.8854V4.02059C39.8854 1.97403 38.2207 0.309265 36.1741 0.309265C30.0922 0.309265 14.3342 0.309265 8.24844 0.309265C6.20187 0.309265 4.53711 1.97403 4.53711 4.02059V55.9793C4.53711 58.0259 6.20187 59.6906 8.24844 59.6906H36.174C38.2205 59.6906 39.8853 58.0259 39.8853 55.9793V43.5648H52.3712C54.0765 43.5648 55.464 42.1773 55.464 40.472C55.464 33.2803 55.464 27.8475 55.464 20.7652C55.4641 19.0599 54.0765 17.6724 52.3713 17.6724ZM54.2269 20.7652V22.729H22.8291V18.9095H52.3713C53.3946 18.9095 54.2269 19.7419 54.2269 20.7652ZM54.2269 28.8595H22.8291V23.966H54.2269V28.8595ZM30.1966 1.54641V3.39727C30.1966 4.42055 29.3642 5.25294 28.3409 5.25294H16.0812C15.058 5.25294 14.2256 4.42055 14.2256 3.39727V1.54641H30.1966ZM38.6483 55.9794C38.6483 57.3439 37.5383 58.4536 36.1741 58.4536H8.24832C6.88402 58.4536 5.77414 57.3439 5.77414 55.9794V4.02059C5.77414 2.65606 6.88414 1.54641 8.24832 1.54641H12.9883V3.39727C12.9883 5.10259 14.3758 6.49009 16.0811 6.49009H28.3408C30.0461 6.49009 31.4336 5.10259 31.4336 3.39727V1.54641H36.174C37.5383 1.54641 38.6482 2.65606 38.6482 4.02059V17.6724H22.829V14.8822C22.829 14.5403 22.5521 14.2637 22.2105 14.2637C21.8689 14.2637 21.592 14.5404 21.592 14.8822V46.3482C21.592 46.6902 21.8689 46.9668 22.2105 46.9668C22.5521 46.9668 22.829 46.6901 22.829 46.3482V43.5647H38.6482V55.9794H38.6483ZM52.3713 42.3277H22.8291V34.7672H43.2793C43.6209 34.7672 43.8978 34.4905 43.8978 34.1487C43.8978 33.8067 43.6209 33.5302 43.2793 33.5302H22.8291V30.0967H54.2269V40.472C54.2269 41.4953 53.3946 42.3277 52.3713 42.3277Z" fill="#1A2E35"/>
<path d="M43.2792 37.657H41.5072C41.1656 37.657 40.8887 37.9337 40.8887 38.2756C40.8887 38.6175 41.1656 38.8941 41.5072 38.8941H43.2792C43.6208 38.8941 43.8977 38.6174 43.8977 38.2756C43.8977 37.9337 43.6208 37.657 43.2792 37.657Z" fill="#1A2E35"/>
<path d="M38.2147 37.657H36.4427C36.1011 37.657 35.8242 37.9337 35.8242 38.2756C35.8242 38.6175 36.1011 38.8941 36.4427 38.8941H38.2147C38.5563 38.8941 38.8332 38.6174 38.8332 38.2756C38.8332 37.9337 38.5563 37.657 38.2147 37.657Z" fill="#1A2E35"/>
<path d="M33.1483 37.657H31.3763C31.0347 37.657 30.7578 37.9337 30.7578 38.2756C30.7578 38.6175 31.0347 38.8941 31.3763 38.8941H33.1483C33.4899 38.8941 33.7668 38.6174 33.7668 38.2756C33.767 37.9337 33.4899 37.657 33.1483 37.657Z" fill="#1A2E35"/>
<path d="M28.0839 37.657H26.3119C25.9703 37.657 25.6934 37.9337 25.6934 38.2756C25.6934 38.6175 25.9703 38.8941 26.3119 38.8941H28.0839C28.4255 38.8941 28.7024 38.6174 28.7024 38.2756C28.7025 37.9337 28.4255 37.657 28.0839 37.657Z" fill="#1A2E35"/>
</svg>
