<svg width="59" height="59" viewBox="0 0 59 59" fill="none" xmlns="http://www.w3.org/2000/svg">
<g clip-path="url(#clip0_22104_8706)">
<path d="M49.9164 49.922C61.1952 38.6433 61.1952 20.3567 49.9164 9.07798C38.6377 -2.20079 20.3512 -2.20078 9.0724 9.07798C-2.20636 20.3568 -2.20636 38.6432 9.0724 49.922C20.3512 61.2008 38.6377 61.2008 49.9164 49.922Z" fill="#38BFF2"/>
<path d="M29.5013 52.2396C42.06 52.2396 52.2408 42.0587 52.2408 29.5C52.2408 16.9413 42.06 6.76047 29.5013 6.76047C16.9426 6.76047 6.76172 16.9413 6.76172 29.5C6.76172 42.0587 16.9426 52.2396 29.5013 52.2396Z" fill="white"/>
<path d="M29.5 0C13.2336 0 0 13.2336 0 29.5C0 45.7664 13.2336 59 29.5 59C45.7664 59 59 45.7664 59 29.5C59 13.2336 45.7664 0 29.5 0ZM29.5 57.7708C13.9116 57.7708 1.22921 45.0884 1.22921 29.5C1.22921 13.9116 13.9116 1.22921 29.5 1.22921C45.0884 1.22921 57.7708 13.9116 57.7708 29.5C57.7708 45.0884 45.0884 57.7708 29.5 57.7708Z" fill="#1A2E35"/>
<path d="M29.5007 6.14578C16.6232 6.14578 6.14648 16.6225 6.14648 29.5C6.14648 42.3774 16.6232 52.8542 29.5007 52.8542C42.3781 52.8542 52.8549 42.3774 52.8549 29.5C52.8549 16.6225 42.3781 6.14578 29.5007 6.14578ZM29.5007 51.625C17.3008 51.625 7.37569 41.6999 7.37569 29.5C7.37569 17.3001 17.3008 7.37499 29.5007 7.37499C41.7006 7.37499 51.6257 17.3001 51.6257 29.5C51.6257 41.6999 41.7006 51.625 29.5007 51.625Z" fill="#1A2E35"/>
<path d="M31.9615 16.2147H23.7879C23.7776 16.2142 23.7688 16.2087 23.7582 16.2087C23.4189 16.2087 23.1437 16.4839 23.1437 16.8233V16.8293V28.5813H20.8567C20.5174 28.5813 20.2422 28.8565 20.2422 29.1959C20.2422 29.5352 20.5174 29.8104 20.8567 29.8104H23.1437V32.412H20.8567C20.5174 32.412 20.2422 32.6871 20.2422 33.0265C20.2422 33.3659 20.5174 33.641 20.8567 33.641H23.1437V42.1765C23.1437 42.5158 23.4189 42.791 23.7582 42.791C24.0976 42.791 24.3728 42.5158 24.3728 42.1765V33.641H35.4632C35.8025 33.641 36.0777 33.3659 36.0777 33.0265C36.0777 32.6871 35.8025 32.412 35.4632 32.412H24.3729V29.8104H25.4088H31.5312C35.3003 29.8104 38.4663 27.0646 38.7385 23.5593C38.7385 23.559 38.7385 23.559 38.7385 23.559C39.0546 19.4844 35.8377 16.2147 31.9615 16.2147ZM37.5129 23.4642V23.4639C37.2903 26.3337 34.6627 28.5813 31.5312 28.5813H25.4088H24.3729V17.4438H31.9615C35.1355 17.4439 37.7727 20.1178 37.5129 23.4642Z" fill="#1A2E35"/>
</g>
<defs>
<clipPath id="clip0_22104_8706">
<rect width="59" height="59" fill="white"/>
</clipPath>
</defs>
</svg>
