<svg width="58" height="58" viewBox="0 0 58 58" fill="none" xmlns="http://www.w3.org/2000/svg">
<g clip-path="url(#clip0_22104_8648)">
<path d="M57.1026 11.7016V54.4721C57.1026 55.931 55.9247 57.103 54.4657 57.103H3.53333C2.07438 57.103 0.896484 55.931 0.896484 54.4721V11.7016H57.1026Z" fill="white"/>
<path d="M57.1026 3.53381V11.7016H0.896484V3.53381C0.896484 2.07486 2.07438 0.896959 3.53333 0.896959H54.4657C55.9247 0.896959 57.1026 2.07486 57.1026 3.53381Z" fill="#38BFF2"/>
<path d="M8.11732 6.29651C8.11732 7.05765 7.4996 7.67548 6.73835 7.67548C5.9771 7.67548 5.35938 7.05776 5.35938 6.29651C5.35938 5.53526 5.9771 4.92309 6.73835 4.92309C7.4996 4.92309 8.11732 5.53537 8.11732 6.29651Z" fill="#D7E9FF"/>
<path d="M13.9474 6.29651C13.9474 7.05765 13.3297 7.67548 12.5684 7.67548C11.8072 7.67548 11.1895 7.05776 11.1895 6.29651C11.1895 5.53526 11.8072 4.92309 12.5684 4.92309C13.3297 4.92309 13.9474 5.53537 13.9474 6.29651Z" fill="#D7E9FF"/>
<path d="M19.7794 6.29651C19.7794 7.05765 19.1617 7.67548 18.4005 7.67548C17.6392 7.67548 17.0215 7.05776 17.0215 6.29651C17.0215 5.53526 17.6392 4.92309 18.4005 4.92309C19.1617 4.92309 19.7794 5.53537 19.7794 6.29651Z" fill="#D7E9FF"/>
<path d="M52.6404 6.2956C52.6404 7.05719 52.0179 7.67231 51.2563 7.67231H36.6619C35.9003 7.67231 35.2852 7.05719 35.2852 6.2956C35.2852 5.53401 35.9003 4.92626 36.6619 4.92626H51.2565C52.0179 4.92626 52.6404 5.53401 52.6404 6.2956Z" fill="#D7E9FF"/>
<path d="M54.466 0.298948H3.5338C1.74996 0.298948 0.298828 1.74997 0.298828 3.53392V54.4722C0.298828 56.2525 1.74985 57.7011 3.5338 57.7011H54.466C56.2498 57.7011 57.7009 56.2526 57.7009 54.4722C57.7009 48.0721 57.7009 11.1231 57.7009 3.53392C57.7009 1.74997 56.2499 0.298948 54.466 0.298948ZM1.49474 3.53392C1.49474 2.4096 2.40971 1.49486 3.5338 1.49486H54.466C55.5901 1.49486 56.505 2.4096 56.505 3.53392V11.1036H1.49474V3.53392ZM56.505 54.4722C56.505 55.593 55.5901 56.5051 54.466 56.5051H3.5338C2.40971 56.5051 1.49474 55.593 1.49474 54.4722V12.2995H56.505V54.4722Z" fill="#1A2E35"/>
<path d="M8.09536 35.0121C9.25558 35.0121 10.1992 35.9455 10.1992 37.0926V42.3091C10.1992 44.1283 11.6689 45.6085 13.4751 45.6085C13.8056 45.6085 14.073 45.3408 14.073 45.0106C14.073 44.6804 13.8055 44.4127 13.4751 44.4127C12.3282 44.4127 11.3951 43.4691 11.3951 42.3091V37.0926C11.3951 35.9776 10.8311 34.9908 9.97152 34.3986C10.8176 33.7978 11.3718 32.8138 11.3718 31.7126V26.4958C11.3718 25.3358 12.3049 24.3922 13.4523 24.3922C13.7829 24.3922 14.0502 24.1245 14.0502 23.7943C14.0502 23.4641 13.7828 23.1964 13.4523 23.1964C11.6457 23.1964 10.1759 24.6766 10.1759 26.4958V31.7126C10.1759 32.8542 9.23814 33.7978 8.08607 33.8163C7.30035 33.8287 7.31111 35.0121 8.09536 35.0121Z" fill="#1A2E35"/>
<path d="M46.6036 37.0926V42.3091C46.6036 43.4691 45.6705 44.4127 44.5237 44.4127C44.1931 44.4127 43.9258 44.6804 43.9258 45.0106C43.9258 45.3408 44.1932 45.6085 44.5237 45.6085C46.3297 45.6085 47.7995 44.1283 47.7995 42.3091V37.0926C47.7995 35.9455 48.7432 35.0121 49.9034 35.0121C50.6885 35.0121 50.6974 33.8287 49.9127 33.8162C48.7606 33.7978 47.8229 32.8542 47.8229 31.7125V26.4957C47.8229 24.6765 46.3532 23.1963 44.5464 23.1963C44.2159 23.1963 43.9485 23.4639 43.9485 23.7942C43.9485 24.1244 44.216 24.3921 44.5464 24.3921C45.6939 24.3921 46.627 25.3357 46.627 26.4957V31.7125C46.627 32.8138 47.1811 33.7977 48.0272 34.3985C47.1678 34.9908 46.6036 35.9776 46.6036 37.0926Z" fill="#1A2E35"/>
<path d="M24.9861 44.7975C25.2941 44.9172 25.64 44.7633 25.7592 44.4553L33.3572 24.7806C33.4764 24.4726 33.3228 24.1263 33.015 24.0075C32.7085 23.8886 32.361 24.0419 32.2419 24.3497L24.6439 44.0244C24.5248 44.3324 24.6783 44.6787 24.9861 44.7975Z" fill="#1A2E35"/>
<path d="M40.9984 34.4116L34.1052 39.0701C33.8313 39.2552 33.7595 39.6269 33.9446 39.9005C34.1301 40.1759 34.5033 40.2446 34.7744 40.0611L42.3993 34.908C42.7519 34.6697 42.7479 34.1538 42.4004 33.9177L34.7755 28.7447C34.5034 28.5596 34.1309 28.6305 33.9452 28.9038C33.7595 29.1771 33.8308 29.5491 34.104 29.7344L40.9984 34.4116Z" fill="#1A2E35"/>
<path d="M15.599 34.9064L23.152 40.0595C23.4237 40.2455 23.7969 40.1753 23.983 39.9024C24.1692 39.6297 24.0986 39.2577 23.8258 39.0715L16.9956 34.4114L23.827 29.7327C24.0991 29.5461 24.1685 29.1739 23.9823 28.9014C23.7955 28.629 23.4246 28.5596 23.1508 28.7458L15.5978 33.9188C15.4349 34.0304 15.3379 34.2155 15.3379 34.4128C15.3379 34.6101 15.4361 34.7951 15.599 34.9064Z" fill="#1A2E35"/>
<path d="M6.73825 4.32508C5.6486 4.32508 4.76172 5.20946 4.76172 6.2964C4.76172 7.38662 5.64871 8.27327 6.73825 8.27327C7.82847 8.27327 8.71546 7.38662 8.71546 6.2964C8.71535 5.20946 7.82836 4.32508 6.73825 4.32508ZM6.73825 7.07747C6.30789 7.07747 5.95752 6.72709 5.95752 6.29651C5.95752 5.86876 6.30789 5.5211 6.73825 5.5211C7.16917 5.5211 7.51955 5.86887 7.51955 6.29651C7.51944 6.72709 7.16917 7.07747 6.73825 7.07747Z" fill="#1A2E35"/>
<path d="M12.569 4.32508C11.4788 4.32508 10.5918 5.20946 10.5918 6.2964C10.5918 7.38662 11.4788 8.27327 12.569 8.27327C13.6587 8.27327 14.5455 7.38662 14.5455 6.2964C14.5455 5.20946 13.6585 4.32508 12.569 4.32508ZM12.569 7.07747C12.1381 7.07747 11.7877 6.72709 11.7877 6.29651C11.7877 5.86876 12.1381 5.5211 12.569 5.5211C12.9994 5.5211 13.3497 5.86887 13.3497 6.29651C13.3497 6.72709 12.9994 7.07747 12.569 7.07747Z" fill="#1A2E35"/>
<path d="M18.3991 4.32508C17.3089 4.32508 16.4219 5.20946 16.4219 6.2964C16.4219 7.38662 17.3089 8.27327 18.3991 8.27327C19.4887 8.27327 20.3756 7.38662 20.3756 6.2964C20.3756 5.20946 19.4886 4.32508 18.3991 4.32508ZM18.3991 7.07747C17.9682 7.07747 17.6178 6.72709 17.6178 6.29651C17.6178 5.86876 17.9682 5.5211 18.3991 5.5211C18.8294 5.5211 19.1798 5.86887 19.1798 6.29651C19.1798 6.72709 18.8294 7.07747 18.3991 7.07747Z" fill="#1A2E35"/>
<path d="M51.2569 4.32836H36.6623C35.5734 4.32836 34.6875 5.21094 34.6875 6.2956C34.6875 7.38458 35.5734 8.27044 36.6623 8.27044H51.2569C52.3494 8.27044 53.2388 7.38458 53.2388 6.2956C53.2388 5.21094 52.3494 4.32836 51.2569 4.32836ZM51.2569 7.07453H36.6623C36.2325 7.07453 35.8834 6.72505 35.8834 6.2956C35.8834 5.86321 36.2256 5.52427 36.6623 5.52427H51.2569C51.6902 5.52427 52.0429 5.87023 52.0429 6.2956C52.0429 6.72505 51.6902 7.07453 51.2569 7.07453Z" fill="#1A2E35"/>
</g>
<defs>
<clipPath id="clip0_22104_8648">
<rect width="58" height="58" fill="white"/>
</clipPath>
</defs>
</svg>
