<svg width="72" height="72" viewBox="0 0 72 72" fill="none" xmlns="http://www.w3.org/2000/svg">
<path d="M63.5549 11.1207V63.2324C63.5549 64.6005 62.4474 65.708 61.0793 65.708H10.9742C9.60613 65.708 8.49862 64.6005 8.49862 63.2324V59.988C7.16314 59.988 5.9514 59.4408 5.0784 58.5678C4.19245 57.6948 3.6582 56.4766 3.6582 55.1411H8.49862V11.1207C8.49862 9.75264 9.60613 8.64513 10.9742 8.64513H61.0793C62.4476 8.64513 63.5549 9.75264 63.5549 11.1207Z" fill="white"/>
<path d="M8.68829 59.4094C6.12721 59.4094 4.87716 56.3605 4.57227 54.8361L54.4219 54.3788C55.3633 58.1443 57.4933 59.2633 58.85 59.4094H59.4526C59.279 59.4311 59.0752 59.4337 58.85 59.4094H8.68829Z" fill="#38BFF2"/>
<path d="M19.1815 27.8533C17.0222 27.8533 15.2656 29.6061 15.2656 31.7602C15.2656 33.9151 17.0222 35.6679 19.1815 35.6679C21.3358 35.6679 23.0884 33.9151 23.0884 31.7602C23.0884 29.6061 21.3358 27.8533 19.1815 27.8533Z" fill="#38BFF2"/>
<path d="M19.1815 27.8532C17.0222 27.8532 15.2656 29.6061 15.2656 31.7602C15.2656 33.915 17.0222 35.6678 19.1815 35.6678C21.3358 35.6678 23.0884 33.915 23.0884 31.7602C23.0884 29.6061 21.3358 27.8532 19.1815 27.8532ZM19.1815 34.3648C17.7408 34.3648 16.5686 33.1961 16.5686 31.7602C16.5686 30.3242 17.7408 29.1561 19.1815 29.1561C20.6174 29.1561 21.7856 30.3242 21.7856 31.7602C21.7856 33.1961 20.6174 34.3648 19.1815 34.3648Z" fill="#1A2E35"/>
<path d="M30.7518 27.8532C28.5925 27.8532 26.8359 29.6061 26.8359 31.7602C26.8359 33.915 28.5925 35.6678 30.7518 35.6678C32.9063 35.6678 34.659 33.915 34.659 31.7602C34.6592 29.6061 32.9063 27.8532 30.7518 27.8532Z" fill="#38BFF2"/>
<path d="M30.7518 27.8532C28.5925 27.8532 26.8359 29.6061 26.8359 31.7602C26.8359 33.915 28.5925 35.6678 30.7518 35.6678C32.9063 35.6678 34.659 33.915 34.659 31.7602C34.6592 29.6061 32.9063 27.8532 30.7518 27.8532ZM30.7518 34.3648C29.3111 34.3648 28.139 33.1961 28.139 31.7602C28.139 30.3242 29.3111 29.1561 30.7518 29.1561C32.1877 29.1561 33.3562 30.3242 33.3562 31.7602C33.3562 33.1961 32.1877 34.3648 30.7518 34.3648Z" fill="#1A2E35"/>
<path d="M42.3241 27.9315C40.1648 27.9315 38.4082 29.6843 38.4082 31.8385C38.4082 33.9933 40.1648 35.7461 42.3241 35.7461C44.4786 35.7461 46.2313 33.9933 46.2313 31.8385C46.2313 29.6843 44.4786 27.9315 42.3241 27.9315Z" fill="#38BFF2"/>
<path d="M42.3241 27.8532C40.1648 27.8532 38.4082 29.6061 38.4082 31.7602C38.4082 33.915 40.1648 35.6678 42.3241 35.6678C44.4786 35.6678 46.2313 33.915 46.2313 31.7602C46.2313 29.6061 44.4786 27.8532 42.3241 27.8532ZM42.3241 34.3648C40.8834 34.3648 39.7112 33.1961 39.7112 31.7602C39.7112 30.3242 40.8834 29.1561 42.3241 29.1561C43.76 29.1561 44.9284 30.3242 44.9284 31.7602C44.9283 33.1961 43.76 34.3648 42.3241 34.3648Z" fill="#1A2E35"/>
<path d="M53.8944 35.6678C56.0489 35.6678 57.8016 33.915 57.8016 31.7602C57.8016 29.6059 56.0488 27.8532 53.8944 27.8532C51.7351 27.8532 49.9785 29.6061 49.9785 31.7602C49.9785 33.915 51.7351 35.6678 53.8944 35.6678Z" fill="#38BFF2"/>
<path d="M53.8944 35.6678C56.0489 35.6678 57.8016 33.915 57.8016 31.7602C57.8016 29.6059 56.0488 27.8532 53.8944 27.8532C51.7351 27.8532 49.9785 29.6061 49.9785 31.7602C49.9785 33.915 51.7351 35.6678 53.8944 35.6678ZM53.8944 29.1563C55.3303 29.1563 56.4987 30.3244 56.4987 31.7603C56.4987 33.1963 55.3303 34.365 53.8944 34.365C52.4537 34.365 51.2815 33.1963 51.2815 31.7603C51.2815 30.3242 52.4537 29.1563 53.8944 29.1563Z" fill="#1A2E35"/>
<path d="M19.1815 38.8293C17.0222 38.8293 15.2656 40.5821 15.2656 42.737C15.2656 44.8912 17.0222 46.6439 19.1815 46.6439C21.3358 46.6439 23.0884 44.8911 23.0884 42.737C23.0884 40.5821 21.3358 38.8293 19.1815 38.8293Z" fill="#38BFF2"/>
<path d="M19.1815 38.8293C17.0222 38.8293 15.2656 40.5821 15.2656 42.737C15.2656 44.8912 17.0222 46.6439 19.1815 46.6439C21.3358 46.6439 23.0884 44.8911 23.0884 42.737C23.0884 40.5821 21.3358 38.8293 19.1815 38.8293ZM19.1815 45.3409C17.7408 45.3409 16.5686 44.1728 16.5686 42.7368C16.5686 41.3009 17.7408 40.1322 19.1815 40.1322C20.6174 40.1322 21.7856 41.3009 21.7856 42.7368C21.7856 44.1728 20.6174 45.3409 19.1815 45.3409Z" fill="#1A2E35"/>
<path d="M30.7518 38.8293C28.5925 38.8293 26.8359 40.5821 26.8359 42.737C26.8359 44.8912 28.5925 46.6439 30.7518 46.6439C32.9063 46.6439 34.659 44.8911 34.659 42.737C34.6592 40.5821 32.9063 38.8293 30.7518 38.8293Z" fill="#38BFF2"/>
<path d="M30.7518 38.8293C28.5925 38.8293 26.8359 40.5821 26.8359 42.737C26.8359 44.8912 28.5925 46.6439 30.7518 46.6439C32.9063 46.6439 34.659 44.8911 34.659 42.737C34.6592 40.5821 32.9063 38.8293 30.7518 38.8293ZM30.7518 45.3409C29.3111 45.3409 28.139 44.1728 28.139 42.7368C28.139 41.3009 29.3111 40.1322 30.7518 40.1322C32.1877 40.1322 33.3562 41.3009 33.3562 42.7368C33.3562 44.1728 32.1877 45.3409 30.7518 45.3409Z" fill="#1A2E35"/>
<path d="M42.3241 38.8293C40.1648 38.8293 38.4082 40.5821 38.4082 42.737C38.4082 44.8912 40.1648 46.6439 42.3241 46.6439C44.4786 46.6439 46.2313 44.8911 46.2313 42.737C46.2313 40.5821 44.4786 38.8293 42.3241 38.8293ZM42.3241 45.3409C40.8834 45.3409 39.7112 44.1728 39.7112 42.7368C39.7112 41.3009 40.8834 40.1322 42.3241 40.1322C43.76 40.1322 44.9284 41.3009 44.9284 42.7368C44.9284 44.1728 43.76 45.3409 42.3241 45.3409Z" fill="#1A2E35"/>
<path d="M57.8016 42.737C57.8016 40.5821 56.0488 38.8293 53.8944 38.8293C51.7351 38.8293 49.9785 40.5821 49.9785 42.737C49.9785 44.8912 51.7351 46.6439 53.8944 46.6439C56.0489 46.6439 57.8016 44.8911 57.8016 42.737ZM53.8944 45.3409C52.4537 45.3409 51.2815 44.1728 51.2815 42.7368C51.2815 41.3009 52.4537 40.1322 53.8944 40.1322C55.3303 40.1322 56.4987 41.3009 56.4987 42.7368C56.4987 44.1728 55.3303 45.3409 53.8944 45.3409Z" fill="#1A2E35"/>
<path d="M61.5857 7.43104H56.357V3.90646C56.357 3.54639 56.0654 3.25502 55.7056 3.25502C55.3458 3.25502 55.0542 3.54639 55.0542 3.90646V7.43104H16.4582V3.90646C16.4582 3.54639 16.1666 3.25502 15.8068 3.25502C15.447 3.25502 15.1554 3.54639 15.1554 3.90646V7.43104H11.4822C9.75812 7.43104 8.35562 8.83382 8.35562 10.5581C8.35534 16.2883 8.35367 53.6848 8.35367 53.9291H4.16315C3.80337 53.9291 3.51172 54.2205 3.51172 54.5805C3.51172 57.4732 5.69581 59.7191 8.35353 60.0329V62.6699C8.35353 64.394 9.75631 65.7969 11.4806 65.7969H61.5858C63.3099 65.7969 64.7128 64.3941 64.7128 62.6699C64.7128 51.1802 64.7128 21.4647 64.7128 10.5581C64.7127 8.83382 63.3099 7.43104 61.5857 7.43104ZM11.4821 8.73405H15.1552V13.9039C15.1552 14.2639 15.4469 14.5553 15.8067 14.5553C16.1664 14.5553 16.4581 14.2639 16.4581 13.9039V8.73405H55.054V13.9039C55.054 14.2639 55.3457 14.5553 55.7055 14.5553C56.0653 14.5553 56.3569 14.2639 56.3569 13.9039V8.73405H61.5855C62.5913 8.73405 63.4096 9.55228 63.4096 10.5581V19.0731H9.65835V10.5579C9.65835 9.55214 10.4766 8.73405 11.4821 8.73405ZM9.65654 20.3766H63.4098V54.5786C63.4098 56.891 61.5319 58.7723 59.2232 58.7735C59.2211 58.7735 59.2196 58.7724 59.2175 58.7724C56.9026 58.7724 55.0255 56.8963 55.0255 54.5804C55.0255 54.2203 54.7338 53.9289 54.374 53.9289H9.65654V20.3766ZM4.8642 55.232H53.7606C53.9238 56.6194 54.6046 57.8707 55.6655 58.7724H9.00691C6.89737 58.7724 5.16936 57.2184 4.8642 55.232ZM63.4097 62.6699C63.4097 63.6757 62.5915 64.4939 61.5857 64.4939H11.4806C10.4748 64.4939 9.65654 63.6758 9.65654 62.6699V60.0767H59.2207C60.899 60.0767 62.4017 59.3173 63.4098 58.1259V62.6699H63.4097Z" fill="#1A2E35"/>
</svg>
