<svg width="70" height="61" viewBox="0 0 70 61" fill="none" xmlns="http://www.w3.org/2000/svg">
<path d="M68.9169 4.03252V39.6131H1.08203V4.03252C1.08203 2.41491 2.37375 1.10474 3.96857 1.10474H66.0304C67.6252 1.1046 68.9169 2.41491 68.9169 4.03252Z" fill="white"/>
<path d="M1.08203 39.614V46.1541C1.08203 47.7711 2.37443 49.0818 3.96857 49.0818H66.0304C67.6247 49.0818 68.9169 47.771 68.9169 46.1541V39.614H1.08203Z" fill="#38BFF2"/>
<path d="M27.4297 49.0819H42.5697V55.9717H27.4297V49.0819Z" fill="#D7E9FF"/>
<path d="M48.6404 56.824L50.4448 58.6449C50.9012 59.1054 50.5796 59.8957 49.9358 59.8957H20.0668C19.423 59.8957 19.1015 59.1054 19.5578 58.6449L21.3623 56.824C21.9031 56.2781 22.6351 55.9717 23.3981 55.9717H46.6044C47.3675 55.9717 48.0995 56.2781 48.6404 56.824Z" fill="#38BFF2"/>
<path d="M35.0005 45.8045C35.7937 45.8045 36.4366 45.1523 36.4366 44.3478C36.4366 43.5434 35.7937 42.8912 35.0005 42.8912C34.2074 42.8912 33.5645 43.5434 33.5645 44.3478C33.5645 45.1523 34.2074 45.8045 35.0005 45.8045Z" fill="#D7E9FF"/>
<path d="M69.6397 4.03239C69.6397 2.01443 68.021 0.372559 66.0314 0.372559H3.96961C1.98008 0.372559 0.361328 2.01443 0.361328 4.03239V46.1544C0.361328 48.1723 1.98008 49.8142 3.96961 49.8142H26.7087V55.2396H23.3971C22.4365 55.2396 21.533 55.6185 20.853 56.3054L19.0482 58.1261C18.1375 59.045 18.7801 60.6279 20.0658 60.6279H49.9353C51.2203 60.6279 51.8642 59.0457 50.9529 58.1261L49.148 56.3054C48.468 55.6178 47.5646 55.2396 46.604 55.2396H43.2924V49.8142H66.0314C68.021 49.8142 69.6397 48.1723 69.6397 46.1544C69.6397 31.192 69.6397 20.0716 69.6397 4.03239ZM1.80467 4.03239C1.80467 2.8215 2.77578 1.83652 3.96961 1.83652H66.0314C67.2253 1.83652 68.1964 2.8215 68.1964 4.03239V38.8812H1.80467V4.03239ZM48.1298 57.3424C48.1304 57.3431 48.1304 57.3431 48.1304 57.3431L49.9353 59.1638H20.0658L21.8713 57.3424C22.2794 56.9307 22.8212 56.7034 23.3971 56.7034H46.604C47.1797 56.7034 47.7217 56.9307 48.1298 57.3424ZM41.8492 55.2395H28.1519V49.8141H41.8492V55.2395ZM68.1964 46.1544C68.1964 47.3653 67.2253 48.3503 66.0314 48.3503C45.3324 48.3503 24.6193 48.3503 3.96961 48.3503C2.77578 48.3503 1.80467 47.3653 1.80467 46.1544V40.3458H68.1964V46.1544Z" fill="#1A2E35"/>
<path d="M34.9998 46.5367C36.1894 46.5367 37.1577 45.5547 37.1577 44.3481C37.1577 43.1415 36.1895 42.1593 34.9998 42.1593C33.8102 42.1593 32.8418 43.1414 32.8418 44.3481C32.8418 45.5547 33.8102 46.5367 34.9998 46.5367ZM34.9998 43.6233C35.3937 43.6233 35.7144 43.9484 35.7144 44.3481C35.7144 44.7476 35.3938 45.0729 34.9998 45.0729C34.6057 45.0729 34.2851 44.7477 34.2851 44.3481C34.2851 43.9484 34.6059 43.6233 34.9998 43.6233Z" fill="#1A2E35"/>
<path d="M56.0665 9.00012H7.7216C7.32265 9.00012 7 9.32753 7 9.73203C7 10.1365 7.32279 10.4639 7.7216 10.4639H56.0665C56.4655 10.4639 56.7881 10.1365 56.7881 9.73203C56.7881 9.32753 56.4653 9.00012 56.0665 9.00012Z" fill="#1A2E35"/>
<path d="M56.0665 14.0001H7.7216C7.32265 14.0001 7 14.3275 7 14.732C7 15.1365 7.32279 15.4639 7.7216 15.4639H56.0665C56.4655 15.4639 56.7881 15.1365 56.7881 14.732C56.7881 14.3275 56.4653 14.0001 56.0665 14.0001Z" fill="#1A2E35"/>
<path d="M46.0665 19.0001H7.7216C7.32265 19.0001 7 19.3275 7 19.732C7 20.1365 7.32279 20.4639 7.7216 20.4639H46.0665C46.4655 20.4639 46.7881 20.1365 46.7881 19.732C46.7881 19.3275 46.4653 19.0001 46.0665 19.0001Z" fill="#1A2E35"/>
<path d="M36.0665 24.0001H7.7216C7.32265 24.0001 7 24.3275 7 24.732C7 25.1365 7.32279 25.4639 7.7216 25.4639H36.0665C36.4655 25.4639 36.7881 25.1365 36.7881 24.732C36.7881 24.3275 36.4653 24.0001 36.0665 24.0001Z" fill="#1A2E35"/>
<path d="M26.0665 29.0001H7.7216C7.32265 29.0001 7 29.3275 7 29.732C7 30.1365 7.32279 30.4639 7.7216 30.4639H26.0665C26.4655 30.4639 26.7881 30.1365 26.7881 29.732C26.7881 29.3275 26.4653 29.0001 26.0665 29.0001Z" fill="#1A2E35"/>
</svg>
